<svg xmlns="http://www.w3.org/2000/svg" viewBox="0 0 40 40"><defs><style>.a{fill:none;stroke:#727272;stroke-linecap:round;stroke-miterlimit:10;stroke-width:1.3px;}.b{fill:#727272;}</style></defs><title>help</title><path class="a" d="M18.17,16.67A1.83,1.83,0,1,1,20,18.49v1.39"/><circle class="b" cx="20" cy="21.7" r="0.71"/><path class="b" d="M27,11.67A2.73,2.73,0,0,1,29.7,14.4v7.39A2.73,2.73,0,0,1,27,24.52H25l-.39.48-2.08,2.55v-3H13a2.73,2.73,0,0,1-2.73-2.73V14.4A2.73,2.73,0,0,1,13,11.67H27m0-1.3H13a4,4,0,0,0-4,4v7.39a4,4,0,0,0,4,4h8.22v2.94a.87.87,0,0,0,.88.87.85.85,0,0,0,.67-.32l2.84-3.49H27a4,4,0,0,0,4-4V14.4a4,4,0,0,0-4-4Z"/></svg>