<svg xmlns="http://www.w3.org/2000/svg" viewBox="0 0 38.6 36.71"><defs><style>.a{fill:#87888a;}</style></defs><title>account</title><path class="a" d="M34.16,7.58H4.44A1.36,1.36,0,0,0,3.08,8.94V27.77a1.36,1.36,0,0,0,1.36,1.36H34.16a1.36,1.36,0,0,0,1.36-1.36V8.94A1.36,1.36,0,0,0,34.16,7.58ZM20.22,25.43H6.49c0-2.42-.15-3.11,1.82-3.56s3.83-1,2.91-2.71c-2.71-5-.77-7.79,2.14-7.79s4.84,2.77,2.14,7.86c-.89,1.67.94,2.17,2.91,2.62S20.22,23,20.22,25.43Zm12.72-5.66a.87.87,0,0,1-.87.87H21a.87.87,0,0,1-.87-.87v-.9A.87.87,0,0,1,21,18h11a.87.87,0,0,1,.87.87Zm0-4.5a.87.87,0,0,1-.87.87H21a.87.87,0,0,1-.87-.87v-.9A.87.87,0,0,1,21,13.5h11a.87.87,0,0,1,.87.87Z"/></svg>