<?xml version="1.0" encoding="UTF-8" standalone="no"?>
<!DOCTYPE svg PUBLIC "-//W3C//DTD SVG 1.1//EN" "http://www.w3.org/Graphics/SVG/1.1/DTD/svg11.dtd">
<svg version="1.1" xmlns="http://www.w3.org/2000/svg" xmlns:xlink="http://www.w3.org/1999/xlink" preserveAspectRatio="xMidYMid meet" viewBox="0 0 400 400" width="400" height="400"><defs><path d="M182.74 100.28L186.2 100.64L189.62 101.12L192.99 101.74L196.31 102.49L199.59 103.37L202.81 104.37L205.97 105.49L209.08 106.74L212.12 108.1L215.1 109.57L218.02 111.15L220.86 112.84L223.64 114.64L226.34 116.54L228.96 118.54L231.5 120.63L233.95 122.82L236.32 125.11L238.6 127.48L240.8 129.93L242.89 132.47L244.89 135.09L246.79 137.79L248.59 140.57L250.28 143.41L251.86 146.33L253.33 149.31L254.69 152.35L255.93 155.46L257.06 158.63L258.06 161.85L258.94 165.12L259.69 168.44L260.31 171.82L260.79 175.23L261.14 178.69L261.36 182.19L261.43 185.72L261.36 189.25L261.14 192.75L260.79 196.21L260.31 199.62L259.69 203L258.94 206.32L258.06 209.59L257.06 212.81L255.93 215.98L254.69 219.09L253.33 222.13L251.86 225.11L250.28 228.03L248.59 230.87L246.79 233.65L244.89 236.35L242.89 238.97L240.8 241.51L238.6 243.96L236.32 246.33L233.95 248.62L231.5 250.81L228.96 252.9L226.34 254.9L223.64 256.8L220.86 258.6L218.02 260.29L215.1 261.87L212.12 263.34L209.08 264.7L205.97 265.95L202.81 267.07L199.59 268.07L196.31 268.95L192.99 269.7L189.62 270.32L186.2 270.8L182.74 271.16L179.25 271.37L175.71 271.44L172.18 271.37L168.68 271.16L165.23 270.8L161.81 270.32L158.44 269.7L155.12 268.95L151.84 268.07L148.62 267.07L145.46 265.95L142.35 264.7L139.3 263.34L136.32 261.87L133.41 260.29L130.56 258.6L127.79 256.8L125.09 254.9L122.47 252.9L119.93 250.81L117.48 248.62L115.11 246.33L112.82 243.96L110.63 241.51L108.54 238.97L106.54 236.35L104.64 233.65L102.84 230.87L101.15 228.03L99.57 225.11L98.09 222.13L96.74 219.09L95.49 215.98L94.37 212.81L93.37 209.59L92.49 206.32L91.74 203L91.12 199.62L90.64 196.21L90.28 192.75L90.07 189.25L90 185.72L90.07 182.19L90.28 178.69L90.64 175.23L91.12 171.82L91.74 168.44L92.49 165.12L93.37 161.85L94.37 158.63L95.49 155.46L96.74 152.35L98.09 149.31L99.57 146.33L101.15 143.41L102.84 140.57L104.64 137.79L106.54 135.09L108.54 132.47L110.63 129.93L112.82 127.48L115.11 125.11L117.48 122.82L119.93 120.63L122.47 118.54L125.09 116.54L127.79 114.64L130.56 112.84L133.41 111.15L136.32 109.57L139.3 108.1L142.35 106.74L145.46 105.49L148.62 104.37L151.84 103.37L155.12 102.49L158.44 101.74L161.81 101.12L165.23 100.64L168.68 100.28L172.18 100.07L175.71 100L179.25 100.07L182.74 100.28ZM169.86 114.52L166.97 114.82L164.13 115.22L161.32 115.74L158.55 116.36L155.82 117.09L153.14 117.93L150.5 118.86L147.91 119.9L145.37 121.03L142.89 122.26L140.46 123.58L138.09 124.99L135.78 126.49L133.53 128.07L131.35 129.74L129.23 131.48L127.18 133.31L125.21 135.21L123.31 137.18L121.48 139.23L119.73 141.35L118.07 143.53L116.48 145.78L114.99 148.09L113.58 150.46L112.26 152.89L111.03 155.38L109.9 157.91L108.86 160.5L107.93 163.14L107.09 165.83L106.36 168.55L105.74 171.32L105.22 174.13L104.81 176.98L104.52 179.86L104.35 182.78L104.29 185.72L104.35 188.66L104.52 191.58L104.81 194.46L105.22 197.31L105.74 200.12L106.36 202.89L107.09 205.61L107.93 208.3L108.86 210.94L109.9 213.53L111.03 216.06L112.26 218.55L113.58 220.98L114.99 223.35L116.48 225.66L118.07 227.91L119.73 230.09L121.48 232.21L123.31 234.26L125.21 236.23L127.18 238.13L129.23 239.96L131.35 241.7L133.53 243.37L135.78 244.95L138.09 246.45L140.46 247.86L142.89 249.18L145.37 250.41L147.91 251.54L150.5 252.58L153.14 253.51L155.82 254.35L158.55 255.08L161.32 255.7L164.13 256.22L166.97 256.62L169.86 256.92L172.77 257.09L175.71 257.15L178.66 257.09L181.57 256.92L184.45 256.62L187.3 256.22L190.11 255.7L192.88 255.08L195.61 254.35L198.29 253.51L200.93 252.58L203.52 251.54L206.06 250.41L208.54 249.18L210.97 247.86L213.34 246.45L215.65 244.95L217.9 243.37L220.08 241.7L222.2 239.96L224.25 238.13L226.22 236.23L228.12 234.26L229.95 232.21L231.7 230.09L233.36 227.91L234.94 225.66L236.44 223.35L237.85 220.98L239.17 218.55L240.4 216.06L241.53 213.53L242.56 210.94L243.5 208.3L244.34 205.61L245.07 202.89L245.69 200.12L246.21 197.31L246.61 194.46L246.91 191.58L247.08 188.66L247.14 185.72L247.08 182.78L246.91 179.86L246.61 176.98L246.21 174.13L245.69 171.32L245.07 168.55L244.34 165.83L243.5 163.14L242.56 160.5L241.53 157.91L240.4 155.38L239.17 152.89L237.85 150.46L236.44 148.09L234.94 145.78L233.36 143.53L231.7 141.35L229.95 139.23L228.12 137.18L226.22 135.21L224.25 133.31L222.2 131.48L220.08 129.74L217.9 128.07L215.65 126.49L213.34 124.99L210.97 123.58L208.54 122.26L206.06 121.03L203.52 119.9L200.93 118.86L198.29 117.93L195.61 117.09L192.88 116.36L190.11 115.74L187.3 115.22L184.45 114.82L181.57 114.52L178.66 114.35L175.71 114.29L172.77 114.35L169.86 114.52Z" id="aae6LMH2P"></path><path d="M290 289.9C290 289.9 290 289.9 290 289.9C283.94 295.96 280.57 299.33 279.9 300C279.9 300 279.9 300 279.9 300C248.38 268.48 230.87 250.97 227.37 247.47C227.37 247.47 227.37 247.47 227.37 247.47C233.43 241.41 236.8 238.04 237.47 237.37C237.47 237.37 237.47 237.37 237.47 237.37C268.99 268.89 286.5 286.4 290 289.9Z" id="a15XDppZQc"></path></defs><g><g><g><use xlink:href="#aae6LMH2P" opacity="1" fill="#ffffff" fill-opacity="1"></use><g><use xlink:href="#aae6LMH2P" opacity="1" fill-opacity="0" stroke="#000000" stroke-width="1" stroke-opacity="0"></use></g></g><g><use xlink:href="#a15XDppZQc" opacity="1" fill="#ffffff" fill-opacity="1"></use><g><use xlink:href="#a15XDppZQc" opacity="1" fill-opacity="0" stroke="#000000" stroke-width="1" stroke-opacity="0"></use></g></g></g></g></svg>